<mxfile host="app.diagrams.net" modified="2024-05-07T07:51:59.327Z" agent="Mozilla/5.0 (Windows NT 10.0; Win64; x64; rv:125.0) Gecko/20100101 Firefox/125.0" version="24.2.9" etag="HJbD0bK_KLiVR4LXX0bq" type="github">
  <diagram name="Page-1" id="aw70-DgieSEE--o6dIR_">
    <mxGraphModel>
      <root>
        <mxCell id="0" />
        <mxCell id="1" parent="0" />
      </root>
    </mxGraphModel>
  </diagram>
</mxfile>
